<?xml version="1.0" standalone="no"?>
<!DOCTYPE svg PUBLIC "-//W3C//DTD SVG 20010904//EN"
 "http://www.w3.org/TR/2001/REC-SVG-20010904/DTD/svg10.dtd">
<svg version="1.0" xmlns="http://www.w3.org/2000/svg"
 width="225.000000pt" height="225.000000pt" viewBox="0 0 225.000000 225.000000"
 preserveAspectRatio="xMidYMid meet">

<g transform="translate(0.000000,225.000000) scale(0.100000,-0.100000)"
fill="#FC6255" stroke="none">
<path d="M1030 2239 c-77 -15 -184 -75 -247 -138 -113 -114 -171 -249 -180
-416 -6 -128 13 -222 68 -334 92 -186 266 -301 454 -301 132 0 243 48 347 151
120 120 186 302 175 483 -22 361 -305 616 -617 555z m439 -519 c22 -48 26 -68
26 -150 0 -82 -4 -103 -27 -152 -15 -32 -50 -81 -78 -108 -27 -28 -76 -63
-108 -78 -50 -24 -69 -27 -157 -27 -93 0 -105 2 -166 32 -123 61 -202 179
-203 303 l-1 65 40 20 c34 16 70 20 230 26 117 4 204 11 225 19 56 21 120 69
143 107 19 34 21 35 35 17 8 -11 26 -44 41 -74z"/>
<path d="M555 1002 c-120 -42 -214 -125 -268 -240 l-32 -67 -3 -295 c-3 -295
-3 -296 20 -330 49 -74 5 -70 853 -70 849 0 804 -4 853 70 23 35 23 35 20 331
l-3 295 -37 75 c-46 93 -122 168 -214 211 -53 25 -83 32 -154 36 l-89 5 -6
-29 c-26 -116 -59 -177 -129 -242 -74 -69 -123 -86 -241 -87 -89 0 -106 3
-156 28 -98 48 -183 155 -203 257 -15 73 -11 70 -89 70 -42 -1 -93 -8 -122
-18z"/>
</g>
</svg>
