<?xml version="1.0" standalone="no"?>
<!DOCTYPE svg PUBLIC "-//W3C//DTD SVG 20010904//EN"
        "http://www.w3.org/TR/2001/REC-SVG-20010904/DTD/svg10.dtd">
<svg version="1.0" xmlns="http://www.w3.org/2000/svg" width="840.000000pt" height="859.000000pt" viewBox="0 0 840.000000 859.000000" preserveAspectRatio="xMidYMid meet">
  <g transform="translate(0.000000,859.000000) scale(0.150000,0.120000)" fill="#FFFFFF" stroke="none">
    <path d="M4924 7303 c2 -10 7 -27 10 -38 3 -11 12 -65 21 -120 24 -161 35
-226 46 -290 6 -33 17 -100 25 -150 7 -49 23 -146 34 -215 35 -210 48 -292 60
-370 6 -41 18 -112 27 -158 9 -45 13 -85 10 -88 -3 -3 -716 -8 -1584 -10
-2820 -8 -2997 -10 -3079 -32 -69 -19 -184 -71 -214 -97 -119 -103 -192 -210
-225 -330 -20 -68 -20 -108 -18 -1824 2 -1955 -3 -1816 71 -1971 40 -83 74
-125 172 -214 27 -25 133 -78 199 -99 l66 -22 1340 0 c2042 1 4268 7 5180 14
l820 7 65 24 c77 28 140 60 189 97 98 75 184 201 217 318 18 68 19 116 17
1818 -1 1550 -3 1758 -17 1827 -44 216 -187 378 -406 460 l-65 25 -752 0 -751
0 -79 82 c-43 44 -98 103 -123 130 -25 26 -115 122 -200 213 -85 90 -168 178
-185 196 -16 17 -84 89 -150 159 -188 201 -295 314 -360 384 -33 35 -82 88
-110 116 -27 29 -76 80 -108 114 -54 57 -60 61 -103 61 -38 0 -45 -3 -40 -17z
m280 -343 c39 -42 132 -141 208 -220 75 -80 155 -165 178 -190 154 -165 291
-310 325 -346 22 -22 92 -96 155 -164 63 -68 148 -159 189 -202 l75 -79 755 2
756 1 72 -25 c99 -35 173 -87 230 -160 56 -73 77 -112 101 -187 15 -51 17
-191 19 -1813 3 -1730 3 -1759 -16 -1823 -56 -178 -219 -321 -393 -343 -127
-16 -806 -21 -4088 -27 l-3195 -7 -68 23 c-92 30 -142 59 -203 119 -76 75
-122 158 -145 265 -18 88 -19 156 -19 1816 0 1666 1 1727 19 1785 28 88 66
149 133 214 95 93 201 138 348 146 61 3 3349 14 4588 15 l54 0 -7 63 c-4 34
-11 81 -16 104 -5 24 -13 76 -19 115 -5 40 -16 109 -24 153 -8 44 -20 112 -26
150 -26 165 -41 258 -60 375 -11 69 -27 170 -35 225 -9 55 -17 106 -20 113
-11 29 8 32 32 5 14 -15 58 -62 97 -103z"/>
  </g>
</svg>
